<?xml version="1.0" encoding="UTF-8" standalone="no"?>
<svg viewBox="0 0 700 700" version="1.1" xmlns="http://www.w3.org/2000/svg" xmlns:xlink="http://www.w3.org/1999/xlink">
<style>
@font-face {
  font-family: 'cern';
  src: url('../fonts/cern-terminal.eot');
  src: url('../fonts/cern-terminal.eot?#iefix') format('embedded-opentype'),
       url('../fonts/cern-terminal.woff') format('woff'),
       url('../fonts/cern-terminal.ttf') format('truetype'),
       url('../fonts/cern-terminal.svg#cern') format('svg');
  font-weight: normal;
  font-style: normal;
}
.cern {
  fill: #56d67e;
  font-family: cern,monospace;
  font-size: 50px; /* 24 */
  filter: url(#glow);
  text-anchor: middle;
  text-transform: uppercase;
}
.date {
  font-size: 21px; /* 13 */
  text-anchor: start;
}
.screen-time {
  text-anchor: end;
}
.button {
  stroke: #56d67e;
  filter: url(#glow);
}
#ff14_logo_shape_pattern { fill: url(#stripe); }

@media (max-width: 1000px) {
  #ff14_logo_shape_pattern { fill: url(#stripe2); }
}
</style>
<title>FullFrontal 2014</title>
<defs>
  <pattern id="stripe" fill="#000000" patternUnits="userSpaceOnUse" width="1" height="4">
    <rect x="0" y="0" width="1" height="1"/>
  </pattern>
  <pattern id="stripe2" fill="#000000" patternUnits="userSpaceOnUse" width="10" height="6">
    <rect x="0" y="0" width="10" height="1.5"/>
  </pattern>
  <path id="shape" d="M20,60 L20,40 L40,40 L40,20 L60,20 L60,0 L280,0 L280,200 L260,200 L260,220 L240,220 L240,240 L220,240 L220,260 L0,260 L0,60 L20,60 L20,60 Z"></path>
  <path id="f" d="M50,171 L50,91 L80,91 L80,60 L50,60 L50,31 L80,31 L80,0 L20,0 L20,60 L0,60 L0,91 L20,91 L20,171 L50,171 L50,171 Z"></path>
  <filter id="glow" x="-50%" y="-50%" width="200%" height="200%" filterUnits="objectBoundingBox">
    <feOffset dx="0" dy="0" in="SourceAlpha" result="shadowOffsetOuter1"></feOffset>
    <feGaussianBlur stdDeviation="10" in="shadowOffsetOuter1" result="shadowBlurOuter1"></feGaussianBlur>
    <feColorMatrix values="0 0 0 0 0   0 0 0 0 0.901960784   0 0 0 0 0.368627451  0 0 0 0.175 0" in="shadowBlurOuter1" type="matrix" result="shadowMatrixOuter1"></feColorMatrix>
    <feMerge>
        <feMergeNode in="shadowMatrixOuter1"></feMergeNode>
        <feMergeNode in="SourceGraphic"></feMergeNode>
    </feMerge>
  </filter>
</defs>

<svg viewBox="0 0 306 286" width="100%" height="30%" preserveAspectRatio="xMidYMid meet" y="10%" x="0%">
  <g id="ff14_logo" transform="translate(0, 0)">
    <g id="ff14_logo_shape_bg" filter="url(#glow)">
      <use fill="#56D67E" fill-rule="evenodd" xlink:href="#shape"></use>
    </g>
    <g id="ff14_logo_shape_pattern">
      <use fill-rule="evenodd" xlink:href="#shape"></use>
    </g>
    <g id="ff14_logo_ff" stroke="#000000" fill="#000000" transform="translate(60, 45)">
      <use fill-rule="evenodd" xlink:href="#f"></use>
      <use fill-rule="evenodd" xlink:href="#f" transform="translate(80, 0)"></use>
    </g>
  </g>
</svg>

<text x="0" y="5%" class="cern date">111 1011 11111011110</text>
<text x="100%" y="5%" class="cern date screen-time">1110000100 - 11100001000</text>
<text x="50%" y="50%" class="cern">7 November 2014 Brighton UK.</text>
<text x="50%" y="55%" class="cern">_</text>
<text x="50%" y="65%" class="cern">Tickets will be sold on the</text>
<text x="50%" y="75%" class="cern">9th July and 16th July.</text>
<a xmlns="http://www.w3.org/2000/svg" id="anchor" xlink:href="http://google.com" xmlns:xlink="http://www.w3.org/1999/xlink" target="_top">
    <rect x="30%" y="82%" class="button" width="40%" height="10%" fill-opacity="0"/>
    <text x="50%" y="90%" class="cern link">More Info</text>
  </a>
</svg>