<?xml version="1.0" encoding="UTF-8" standalone="no"?>
<svg width="306px" height="286px" viewBox="0 0 306 286" version="1.1" xmlns="http://www.w3.org/2000/svg" xmlns:xlink="http://www.w3.org/1999/xlink">
<style>
#ff14_logo_shape_pattern { fill: url(#stripe); }
@media (max-width: 200px) {
  #ff14_logo_shape_pattern { fill: url(#stripe2); }
}
</style>
<title>FullFrontal 2014</title>
<defs>
  <pattern id="stripe" fill="#000000" patternUnits="userSpaceOnUse" width="1" height="4">
    <rect x="0" y="0" width="1" height="1"/>
  </pattern>
  <pattern id="stripe2" fill="#000000" patternUnits="userSpaceOnUse" width="10" height="6">
    <rect x="0" y="0" width="10" height="1.5"/>
  </pattern>
  <path id="shape" d="M20,60 L20,40 L40,40 L40,20 L60,20 L60,0 L280,0 L280,200 L260,200 L260,220 L240,220 L240,240 L220,240 L220,260 L0,260 L0,60 L20,60 L20,60 Z"></path>
  <path id="f" d="M50,171 L50,91 L80,91 L80,60 L50,60 L50,31 L80,31 L80,0 L20,0 L20,60 L0,60 L0,91 L20,91 L20,171 L50,171 L50,171 Z"></path>
  <filter id="glow" x="-50%" y="-50%" width="200%" height="200%" filterUnits="objectBoundingBox">
    <feOffset dx="0" dy="0" in="SourceAlpha" result="shadowOffsetOuter1"></feOffset>
    <feGaussianBlur stdDeviation="10" in="shadowOffsetOuter1" result="shadowBlurOuter1"></feGaussianBlur>
    <feColorMatrix values="0 0 0 0 0   0 0 0 0 0.901960784   0 0 0 0 0.368627451  0 0 0 0.175 0" in="shadowBlurOuter1" type="matrix" result="shadowMatrixOuter1"></feColorMatrix>
    <feMerge>
        <feMergeNode in="shadowMatrixOuter1"></feMergeNode>
        <feMergeNode in="SourceGraphic"></feMergeNode>
    </feMerge>
  </filter>
</defs>
<g id="ff14_logo" transform="translate(13, 13)">
  <g id="ff14_logo_shape_bg" filter="url(#glow)">
    <use fill="#56D67E" fill-rule="evenodd" xlink:href="#shape"></use>
  </g>
  <g id="ff14_logo_shape_pattern">
    <use fill-rule="evenodd" xlink:href="#shape"></use>
  </g>
  <g id="ff14_logo_ff" stroke="#000000" fill="#000000" transform="translate(60, 45)">
    <use fill-rule="evenodd" xlink:href="#f"></use>
    <use fill-rule="evenodd" xlink:href="#f" transform="translate(80, 0)"></use>
  </g>
</g>
</svg>